<mxfile host="app.diagrams.net" agent="Mozilla/5.0 (Windows NT 10.0; Win64; x64; rv:139.0) Gecko/20100101 Firefox/139.0" version="27.1.6">
  <diagram name="Página-1" id="WX3NrgR-IqpFKTmZXo-V">
    <mxGraphModel dx="903" dy="540" grid="1" gridSize="10" guides="1" tooltips="1" connect="1" arrows="1" fold="1" page="1" pageScale="1" pageWidth="827" pageHeight="1169" math="0" shadow="0">
      <root>
        <mxCell id="0" />
        <mxCell id="1" parent="0" />
        <mxCell id="hhMq4iNKKFN9DDDVsw5g-8" value="Gerencia de Tickets" style="swimlane;html=1;childLayout=stackLayout;resizeParent=1;resizeParentMax=0;horizontal=1;startSize=20;horizontalStack=0;whiteSpace=wrap;" vertex="1" parent="1">
          <mxGeometry width="710" height="560" as="geometry">
            <mxRectangle x="170" y="150" width="60" height="30" as="alternateBounds" />
          </mxGeometry>
        </mxCell>
        <mxCell id="hhMq4iNKKFN9DDDVsw5g-29" style="edgeStyle=orthogonalEdgeStyle;rounded=0;orthogonalLoop=1;jettySize=auto;html=1;entryX=0.5;entryY=0;entryDx=0;entryDy=0;entryPerimeter=0;" edge="1" parent="hhMq4iNKKFN9DDDVsw5g-8" source="hhMq4iNKKFN9DDDVsw5g-26" target="hhMq4iNKKFN9DDDVsw5g-28">
          <mxGeometry relative="1" as="geometry" />
        </mxCell>
        <mxCell id="hhMq4iNKKFN9DDDVsw5g-31" style="edgeStyle=orthogonalEdgeStyle;rounded=0;orthogonalLoop=1;jettySize=auto;html=1;entryX=0.5;entryY=0;entryDx=0;entryDy=0;entryPerimeter=0;" edge="1" parent="hhMq4iNKKFN9DDDVsw5g-8" source="hhMq4iNKKFN9DDDVsw5g-28" target="hhMq4iNKKFN9DDDVsw5g-30">
          <mxGeometry relative="1" as="geometry" />
        </mxCell>
        <mxCell id="hhMq4iNKKFN9DDDVsw5g-37" value="" style="edgeStyle=orthogonalEdgeStyle;rounded=0;orthogonalLoop=1;jettySize=auto;html=1;" edge="1" parent="hhMq4iNKKFN9DDDVsw5g-8" source="hhMq4iNKKFN9DDDVsw5g-34" target="hhMq4iNKKFN9DDDVsw5g-36">
          <mxGeometry relative="1" as="geometry" />
        </mxCell>
        <mxCell id="hhMq4iNKKFN9DDDVsw5g-9" value="Solicitante" style="swimlane;html=1;startSize=20;horizontal=0;" vertex="1" parent="hhMq4iNKKFN9DDDVsw5g-8">
          <mxGeometry y="20" width="710" height="180" as="geometry" />
        </mxCell>
        <mxCell id="hhMq4iNKKFN9DDDVsw5g-17" value="" style="points=[[0.145,0.145,0],[0.5,0,0],[0.855,0.145,0],[1,0.5,0],[0.855,0.855,0],[0.5,1,0],[0.145,0.855,0],[0,0.5,0]];shape=mxgraph.bpmn.event;html=1;verticalLabelPosition=bottom;labelBackgroundColor=#ffffff;verticalAlign=top;align=center;perimeter=ellipsePerimeter;outlineConnect=0;aspect=fixed;outline=standard;symbol=general;" vertex="1" parent="hhMq4iNKKFN9DDDVsw5g-9">
          <mxGeometry x="40" y="70" width="40" height="40" as="geometry" />
        </mxCell>
        <mxCell id="hhMq4iNKKFN9DDDVsw5g-26" value="&lt;div&gt;Abrir Ticket&lt;/div&gt;" style="points=[[0.25,0,0],[0.5,0,0],[0.75,0,0],[1,0.25,0],[1,0.5,0],[1,0.75,0],[0.75,1,0],[0.5,1,0],[0.25,1,0],[0,0.75,0],[0,0.5,0],[0,0.25,0]];shape=mxgraph.bpmn.task2;whiteSpace=wrap;rectStyle=rounded;size=10;html=1;container=1;expand=0;collapsible=0;taskMarker=abstract;isLoopSub=1;fontSize=10;labelPosition=center;verticalLabelPosition=middle;align=center;verticalAlign=middle;" vertex="1" parent="hhMq4iNKKFN9DDDVsw5g-9">
          <mxGeometry x="120" y="55" width="110" height="70" as="geometry" />
        </mxCell>
        <mxCell id="hhMq4iNKKFN9DDDVsw5g-36" value="Revisão" style="points=[[0.25,0,0],[0.5,0,0],[0.75,0,0],[1,0.25,0],[1,0.5,0],[1,0.75,0],[0.75,1,0],[0.5,1,0],[0.25,1,0],[0,0.75,0],[0,0.5,0],[0,0.25,0]];shape=mxgraph.bpmn.task2;whiteSpace=wrap;rectStyle=rounded;size=10;html=1;container=1;expand=0;collapsible=0;taskMarker=abstract;" vertex="1" parent="hhMq4iNKKFN9DDDVsw5g-9">
          <mxGeometry x="420" y="55" width="110" height="70" as="geometry" />
        </mxCell>
        <mxCell id="hhMq4iNKKFN9DDDVsw5g-38" value="Aprovado" style="points=[[0.25,0.25,0],[0.5,0,0],[0.75,0.25,0],[1,0.5,0],[0.75,0.75,0],[0.5,1,0],[0.25,0.75,0],[0,0.5,0]];shape=mxgraph.bpmn.gateway2;html=1;verticalLabelPosition=bottom;labelBackgroundColor=#ffffff;verticalAlign=top;align=center;perimeter=rhombusPerimeter;outlineConnect=0;outline=none;symbol=none;gwType=exclusive;" vertex="1" parent="hhMq4iNKKFN9DDDVsw5g-9">
          <mxGeometry x="570" y="70" width="40" height="40" as="geometry" />
        </mxCell>
        <mxCell id="hhMq4iNKKFN9DDDVsw5g-39" style="edgeStyle=orthogonalEdgeStyle;rounded=0;orthogonalLoop=1;jettySize=auto;html=1;entryX=0;entryY=0.5;entryDx=0;entryDy=0;entryPerimeter=0;" edge="1" parent="hhMq4iNKKFN9DDDVsw5g-9" source="hhMq4iNKKFN9DDDVsw5g-36" target="hhMq4iNKKFN9DDDVsw5g-38">
          <mxGeometry relative="1" as="geometry" />
        </mxCell>
        <mxCell id="hhMq4iNKKFN9DDDVsw5g-43" value="" style="points=[[0.145,0.145,0],[0.5,0,0],[0.855,0.145,0],[1,0.5,0],[0.855,0.855,0],[0.5,1,0],[0.145,0.855,0],[0,0.5,0]];shape=mxgraph.bpmn.event;html=1;verticalLabelPosition=bottom;labelBackgroundColor=#ffffff;verticalAlign=top;align=center;perimeter=ellipsePerimeter;outlineConnect=0;aspect=fixed;outline=end;symbol=terminate;" vertex="1" parent="hhMq4iNKKFN9DDDVsw5g-9">
          <mxGeometry x="650" y="70" width="40" height="40" as="geometry" />
        </mxCell>
        <mxCell id="hhMq4iNKKFN9DDDVsw5g-44" style="edgeStyle=orthogonalEdgeStyle;rounded=0;orthogonalLoop=1;jettySize=auto;html=1;entryX=0;entryY=0.5;entryDx=0;entryDy=0;entryPerimeter=0;" edge="1" parent="hhMq4iNKKFN9DDDVsw5g-9" source="hhMq4iNKKFN9DDDVsw5g-38" target="hhMq4iNKKFN9DDDVsw5g-43">
          <mxGeometry relative="1" as="geometry" />
        </mxCell>
        <mxCell id="hhMq4iNKKFN9DDDVsw5g-45" value="&lt;div&gt;Sim&lt;/div&gt;" style="edgeLabel;html=1;align=center;verticalAlign=middle;resizable=0;points=[];" vertex="1" connectable="0" parent="hhMq4iNKKFN9DDDVsw5g-44">
          <mxGeometry x="-0.0309" y="-1" relative="1" as="geometry">
            <mxPoint as="offset" />
          </mxGeometry>
        </mxCell>
        <mxCell id="hhMq4iNKKFN9DDDVsw5g-47" style="edgeStyle=orthogonalEdgeStyle;rounded=0;orthogonalLoop=1;jettySize=auto;html=1;entryX=0;entryY=0.5;entryDx=0;entryDy=0;entryPerimeter=0;" edge="1" parent="hhMq4iNKKFN9DDDVsw5g-9" source="hhMq4iNKKFN9DDDVsw5g-17" target="hhMq4iNKKFN9DDDVsw5g-26">
          <mxGeometry relative="1" as="geometry" />
        </mxCell>
        <mxCell id="hhMq4iNKKFN9DDDVsw5g-10" value="Fila de Atendimento" style="swimlane;html=1;startSize=20;horizontal=0;" vertex="1" parent="hhMq4iNKKFN9DDDVsw5g-8">
          <mxGeometry y="200" width="710" height="180" as="geometry" />
        </mxCell>
        <mxCell id="hhMq4iNKKFN9DDDVsw5g-28" value="Receber Ticket" style="points=[[0.25,0,0],[0.5,0,0],[0.75,0,0],[1,0.25,0],[1,0.5,0],[1,0.75,0],[0.75,1,0],[0.5,1,0],[0.25,1,0],[0,0.75,0],[0,0.5,0],[0,0.25,0]];shape=mxgraph.bpmn.task2;whiteSpace=wrap;rectStyle=rounded;size=10;html=1;container=1;expand=0;collapsible=0;taskMarker=abstract;" vertex="1" parent="hhMq4iNKKFN9DDDVsw5g-10">
          <mxGeometry x="120" y="55" width="110" height="70" as="geometry" />
        </mxCell>
        <mxCell id="hhMq4iNKKFN9DDDVsw5g-11" value="Atendente" style="swimlane;html=1;startSize=20;horizontal=0;" vertex="1" parent="hhMq4iNKKFN9DDDVsw5g-8">
          <mxGeometry y="380" width="710" height="180" as="geometry" />
        </mxCell>
        <mxCell id="hhMq4iNKKFN9DDDVsw5g-30" value="Assumir Ticket" style="points=[[0.25,0,0],[0.5,0,0],[0.75,0,0],[1,0.25,0],[1,0.5,0],[1,0.75,0],[0.75,1,0],[0.5,1,0],[0.25,1,0],[0,0.75,0],[0,0.5,0],[0,0.25,0]];shape=mxgraph.bpmn.task2;whiteSpace=wrap;rectStyle=rounded;size=10;html=1;container=1;expand=0;collapsible=0;taskMarker=abstract;" vertex="1" parent="hhMq4iNKKFN9DDDVsw5g-11">
          <mxGeometry x="120" y="55" width="110" height="70" as="geometry" />
        </mxCell>
        <mxCell id="hhMq4iNKKFN9DDDVsw5g-32" value="&lt;div&gt;Atender Ticket&lt;/div&gt;" style="points=[[0.25,0,0],[0.5,0,0],[0.75,0,0],[1,0.25,0],[1,0.5,0],[1,0.75,0],[0.75,1,0],[0.5,1,0],[0.25,1,0],[0,0.75,0],[0,0.5,0],[0,0.25,0]];shape=mxgraph.bpmn.task2;whiteSpace=wrap;rectStyle=rounded;size=10;html=1;container=1;expand=0;collapsible=0;taskMarker=abstract;" vertex="1" parent="hhMq4iNKKFN9DDDVsw5g-11">
          <mxGeometry x="270" y="55" width="110" height="70" as="geometry" />
        </mxCell>
        <mxCell id="hhMq4iNKKFN9DDDVsw5g-33" style="edgeStyle=orthogonalEdgeStyle;rounded=0;orthogonalLoop=1;jettySize=auto;html=1;entryX=0;entryY=0.5;entryDx=0;entryDy=0;entryPerimeter=0;" edge="1" parent="hhMq4iNKKFN9DDDVsw5g-11" source="hhMq4iNKKFN9DDDVsw5g-30" target="hhMq4iNKKFN9DDDVsw5g-32">
          <mxGeometry relative="1" as="geometry" />
        </mxCell>
        <mxCell id="hhMq4iNKKFN9DDDVsw5g-34" value="Retorno" style="points=[[0.25,0,0],[0.5,0,0],[0.75,0,0],[1,0.25,0],[1,0.5,0],[1,0.75,0],[0.75,1,0],[0.5,1,0],[0.25,1,0],[0,0.75,0],[0,0.5,0],[0,0.25,0]];shape=mxgraph.bpmn.task2;whiteSpace=wrap;rectStyle=rounded;size=10;html=1;container=1;expand=0;collapsible=0;taskMarker=abstract;" vertex="1" parent="hhMq4iNKKFN9DDDVsw5g-11">
          <mxGeometry x="420" y="55" width="110" height="70" as="geometry" />
        </mxCell>
        <mxCell id="hhMq4iNKKFN9DDDVsw5g-35" style="edgeStyle=orthogonalEdgeStyle;rounded=0;orthogonalLoop=1;jettySize=auto;html=1;entryX=0;entryY=0.5;entryDx=0;entryDy=0;entryPerimeter=0;" edge="1" parent="hhMq4iNKKFN9DDDVsw5g-11" source="hhMq4iNKKFN9DDDVsw5g-32" target="hhMq4iNKKFN9DDDVsw5g-34">
          <mxGeometry relative="1" as="geometry" />
        </mxCell>
        <mxCell id="hhMq4iNKKFN9DDDVsw5g-40" style="edgeStyle=orthogonalEdgeStyle;rounded=0;orthogonalLoop=1;jettySize=auto;html=1;entryX=0.5;entryY=0;entryDx=0;entryDy=0;entryPerimeter=0;exitX=0.5;exitY=0;exitDx=0;exitDy=0;exitPerimeter=0;" edge="1" parent="hhMq4iNKKFN9DDDVsw5g-8" source="hhMq4iNKKFN9DDDVsw5g-38" target="hhMq4iNKKFN9DDDVsw5g-32">
          <mxGeometry relative="1" as="geometry">
            <Array as="points">
              <mxPoint x="590" y="40" />
              <mxPoint x="325" y="40" />
            </Array>
          </mxGeometry>
        </mxCell>
        <mxCell id="hhMq4iNKKFN9DDDVsw5g-41" value="&lt;div&gt;Não&lt;/div&gt;" style="edgeLabel;html=1;align=center;verticalAlign=middle;resizable=0;points=[];" vertex="1" connectable="0" parent="hhMq4iNKKFN9DDDVsw5g-40">
          <mxGeometry x="-0.9677" y="-1" relative="1" as="geometry">
            <mxPoint as="offset" />
          </mxGeometry>
        </mxCell>
      </root>
    </mxGraphModel>
  </diagram>
</mxfile>
